# xmcd
#
# Track frame offsets:
#	150
#	15503
#	24597
#	41122
#	55321
#	68121
#	80927
#	91652
#	111708
#	123371
#	137625
#	145151
#	161315
#
# Disc length: 2361 seconds
#
# Revision: 1
# Processed by: cddbd v1.5.2PL0 Copyright (c) Steve Scherf et al.
# Submitted via: audiograbber 1.83.01
#
DISCID=b109370d
DTITLE=La Sega del Canto - Light Metal Music
DYEAR=2007
DGENRE=Alternative
TTITLE0=Lapinäidin kehtolaulu
TTITLE1=Salli mun olla kultasi sun
TTITLE2=Oi kuu
TTITLE3=Havannah Gilah
TTITLE4=Päivän työ
TTITLE5=Näpit irti
TTITLE6=Sydänsuruja
TTITLE7=Aurinkolaiva
TTITLE8=Pöhötorjuntaa
TTITLE9=Jumala
TTITLE10=Kansanlaulu
TTITLE11=Adagio
TTITLE12=Surumarssi
EXTD=
EXTT0=
EXTT1=
EXTT2=
EXTT3=
EXTT4=
EXTT5=
EXTT6=
EXTT7=
EXTT8=
EXTT9=
EXTT10=
EXTT11=
EXTT12=
PLAYORDER=
